<svg xmlns="http://www.w3.org/2000/svg" width="800" height="800" viewBox="0 0 800 800">
  <g transform="translate(-228 1646)">
    <rect width="800" height="800" transform="translate(228 -1646)" fill="#222"/>
    <path d="M903.287,398.314v-.093l-.015.062a1.988,1.988,0,0,0-3.969-.2h-.031c-30.3,112.651-118.746,199.839-231.02,227.726C496.73,668.477,323.016,524.484,290.638,394.633c-6.166-34.222-3.721-35.677-2.138-48.415.341,2.582.76,5.368,1.379,8.81,6.092,34.223,21.9,68.07,48.606,98.661,86.441,99,259.957,129.3,385.038,60.057,123.376-68.241,151.6-205.565,62.928-306.874-22.561-25.788-50.574-46.679-81.744-62.467h-.015A2.571,2.571,0,0,0,703.36,144a2.66,2.66,0,0,0-2.454,1.537,2.708,2.708,0,0,0,.377,2.891l-.031.047c74.909,93.278,58.9,222.109-38.129,292.213C561.834,513.871,412.2,493.012,331.57,401.331c-16.786-19.091-30.983-43.565-35.664-58.383a99.192,99.192,0,0,1-2.557-10.752c.156-.313.263-.5.388-.767,19.08,15.257,76.475,55.613,150.159,55.927,240.18,1.033,216.729-228.008,57.487-228.649-44.468-.2-94.919,17.072-144.719,61.542-28.447,29.465-50.047,56.677-68.679,102.87l-.077-.031s-12.089,28.964-16.631,52.7c-1.209,6.259-2.651,14.255-3.488,21.015a281.448,281.448,0,0,0-3.069,30.075C255.791,601.461,390.278,758.791,569.656,767.8c110.609,5.62,216.253-46.815,279.394-138.673l-1.612-1.627C778.048,707.059,668.513,749.826,553.01,731.376,392.283,705.705,279.959,569.942,273.549,421.364c.4-7.965-.311-17.433,4.386-38.948.14-.736.31-1.423.465-2.143a280.229,280.229,0,0,0,3.488,32.845c28.544,170.486,189.877,297.127,362.5,271.889,145.6-21.316,250.093-142.573,258.873-286.457l.031-.047v-.188" transform="translate(44.514 -1701.89)" fill="#00b2ef"/>
  </g>
</svg>
